<svg id="svg" version="1.1" xmlns="http://www.w3.org/2000/svg" xmlns:xlink="http://www.w3.org/1999/xlink" width="400" height="400" viewBox="0, 0, 400,400"><g id="svgg"><path id="path0" d="M256.162 156.694 C 250.865 157.844,246.001 160.096,241.282 163.581 C 238.034 165.981,236.645 166.535,231.396 167.529 C 227.410 168.284,221.971 170.068,215.738 172.666 C 210.486 174.855,194.809 181.209,180.900 186.786 C 165.716 192.874,151.985 198.841,146.535 201.720 L 137.459 206.515 129.804 206.517 C 119.603 206.520,115.164 209.035,119.089 212.587 C 122.155 215.361,139.311 222.145,145.947 223.206 C 147.775 223.498,148.534 223.941,148.534 224.717 C 148.534 228.750,156.916 230.984,160.290 227.850 L 161.868 226.384 160.250 226.204 C 156.179 225.749,149.778 224.598,150.012 224.363 C 150.445 223.930,161.185 225.514,161.943 226.122 C 162.330 226.433,167.446 228.727,173.311 231.220 L 183.975 235.752 184.832 238.694 C 185.912 242.396,187.667 243.648,191.777 243.648 L 194.990 243.648 193.749 242.194 C 192.830 241.116,192.793 240.959,193.609 241.589 C 196.785 244.043,201.303 240.090,201.303 234.858 C 201.303 232.172,200.377 230.712,198.046 229.723 C 197.508 229.495,197.875 229.462,198.860 229.650 C 201.197 230.096,201.131 229.184,198.678 227.120 C 194.818 223.872,189.788 224.445,187.176 228.430 L 186.067 230.124 184.890 228.670 C 184.243 227.871,183.713 226.881,183.713 226.471 C 183.713 225.937,180.873 225.754,173.779 225.830 L 163.844 225.935 172.700 225.419 C 185.130 224.696,183.281 225.418,212.704 209.779 C 227.394 201.971,241.424 194.577,243.882 193.349 L 248.350 191.117 253.538 192.952 C 260.051 195.257,259.603 195.327,260.754 191.831 L 261.728 188.873 259.365 187.644 L 257.003 186.415 263.192 183.543 C 266.596 181.963,271.245 179.988,273.523 179.154 C 278.185 177.448,281.367 173.937,282.763 168.958 C 285.495 159.207,272.398 153.168,256.162 156.694 M256.678 174.484 C 256.678 175.333,255.903 175.897,255.273 175.507 C 254.599 175.091,255.180 173.941,256.065 173.941 C 256.402 173.941,256.678 174.186,256.678 174.484 M240.440 176.075 C 240.359 176.854,239.466 176.703,239.186 175.863 C 239.042 175.433,239.277 175.199,239.707 175.342 C 240.137 175.485,240.467 175.815,240.440 176.075 M263.703 187.459 C 261.056 190.493,260.356 195.846,262.252 198.552 C 263.300 200.049,269.649 200.836,268.734 199.356 C 268.509 198.991,268.761 198.875,269.318 199.089 C 272.322 200.241,274.165 195.312,272.753 189.902 C 272.565 189.186,272.390 188.427,272.363 188.215 C 272.123 186.371,265.181 185.765,263.703 187.459 M178.037 203.331 C 176.938 204.430,175.631 203.384,176.618 202.195 C 177.163 201.538,177.612 201.456,178.083 201.927 C 178.554 202.398,178.540 202.828,178.037 203.331 M188.150 206.352 C 187.885 207.725,186.729 207.638,186.434 206.223 C 186.311 205.633,186.671 205.212,187.296 205.212 C 187.967 205.212,188.287 205.639,188.150 206.352 M166.612 207.980 C 166.463 208.428,165.950 208.795,165.472 208.795 C 164.995 208.795,164.482 208.428,164.332 207.980 C 164.171 207.496,164.633 207.166,165.472 207.166 C 166.312 207.166,166.774 207.496,166.612 207.980 M176.908 211.132 C 177.579 212.218,176.069 213.464,175.171 212.565 C 174.419 211.813,174.890 210.423,175.896 210.423 C 176.212 210.423,176.667 210.742,176.908 211.132 " stroke="none" fill="#000000" fill-rule="evenodd"></path></g></svg>